<?xml version="1.0" encoding="utf-8"?>
<!-- Generator: Adobe Illustrator 16.0.0, SVG Export Plug-In . SVG Version: 6.00 Build 0)  -->
<!DOCTYPE svg PUBLIC "-//W3C//DTD SVG 1.1//EN" "http://www.w3.org/Graphics/SVG/1.1/DTD/svg11.dtd">
<svg version="1.1" id="Layer_1" xmlns="http://www.w3.org/2000/svg" xmlns:xlink="http://www.w3.org/1999/xlink" x="0px" y="0px"
	 width="113.39px" height="56.69px" viewBox="0 0 113.39 56.69" enable-background="new 0 0 113.39 56.69" xml:space="preserve">
<g>
	<g>
		<path fill-rule="evenodd" clip-rule="evenodd" fill="#4F1C1B" d="M73.037,16.848c-0.416-0.071-0.646-0.163-0.848-0.134
			c-0.429,0.059-0.844,0.181-1.266,0.277c0.254,0.306,0.421,0.751,0.773,0.894c1.216,0.493,2.391,0.941,1.825,2.315
			c-0.007-0.001-0.104-0.032-0.209-0.051c-0.536-0.094-1.074-0.186-1.612-0.279c0.186,0.42,0.246,0.931,0.582,1.246
			c1.164,1.091,1.2,1.063,0.722,2.62c-0.215-0.208-0.339-0.43-0.548-0.511c-0.386-0.152-0.82-0.221-1.233-0.325
			c-0.013,0.331-0.167,0.719-0.01,0.983c0.572,0.966,1.359,1.892-0.133,2.826c-0.09-0.157-0.153-0.376-0.317-0.517
			c-0.272-0.234-0.61-0.419-0.92-0.626c-0.183,0.336-0.575,0.705-0.507,1.002c0.263,1.132,0.563,2.214-1.289,2.669
			c0-0.117,0.079-0.39-0.019-0.609c-0.138-0.305-0.405-0.568-0.619-0.85c-0.294,0.277-0.751,0.519-0.857,0.838
			c-0.532,1.613-0.5,1.621-1.543,2.099c-0.116-0.189-0.238-0.375-0.349-0.563c-0.179-0.303-0.353-0.605-0.527-0.908
			c-0.368,0.227-0.872,0.393-1.077,0.691c-0.603,0.879-1.002,1.916-2.498,1.492c0-0.566,0-1.076,0-1.582
			c-0.542,0.225-1.07,0.477-1.629,0.67c-0.917,0.322-1.855,0.605-2.784,0.904c-0.088-0.137-0.176-0.271-0.263-0.408
			c0.224-0.154,0.506-0.277,0.66-0.471c0.218-0.27,0.34-0.59,0.503-0.889c-0.44-0.055-0.993-0.275-1.301-0.139
			c-1.241,0.563-2.408,0.973-3.598-0.088c0.144-0.061,0.367-0.109,0.513-0.225c0.349-0.271,0.662-0.574,0.988-0.864
			c-0.432-0.12-0.87-0.354-1.294-0.34c-2.02,0.065-2.02,0.09-3.512-0.977c0.332-0.021,0.549,0.011,0.706-0.055
			c0.48-0.197,0.938-0.433,1.403-0.654c-0.422-0.23-0.819-0.604-1.276-0.663c-1.22-0.156-2.368-0.276-2.357-1.667
			c0.144,0.012,0.344,0.066,0.53,0.042c0.43-0.058,0.853-0.153,1.278-0.234c-0.232-0.311-0.385-0.801-0.716-0.903
			c-1.388-0.429-2.208-1.102-1.958-2.438c0.146,0.073,0.312,0.209,0.504,0.242c0.475,0.079,0.963,0.112,1.446,0.162
			c-0.171-0.385-0.276-0.802-0.529-1.149c-0.25-0.345-0.725-0.587-0.953-0.938c-0.16-0.246-0.067-0.599-0.089-0.905
			c0.344-0.007,0.687-0.011,1.031-0.024c0.355-0.014,0.709-0.038,1.064-0.058c-0.034-0.336,0.034-0.709-0.12-1.005
			c-0.86-1.663-0.879-1.656,0.17-2.756c0.117,0.223,0.159,0.451,0.318,0.579c0.283,0.225,0.638,0.391,0.962,0.582
			c0.17-0.342,0.516-0.696,0.476-1.021c-0.098-0.794-0.53-1.597,0.507-2.292c0.259,0.175,0.465,0.313,0.668,0.451
			c0.315,0.215,0.63,0.43,0.945,0.646c0.239-0.324,0.595-0.625,0.693-0.975c0.227-0.813,0.188-1.73,1.64-1.959
			c0.106,0.26,0.156,0.427,0.24,0.579c0.165,0.306,0.351,0.605,0.525,0.907c0.363-0.232,0.869-0.403,1.061-0.707
			c0.582-0.923,1.066-1.87,2.799-1.443c-0.1,0.142-0.261,0.277-0.285,0.427c-0.059,0.354-0.051,0.714-0.07,1.072
			c0.429-0.098,1.014-0.082,1.261-0.31c0.957-0.886,1.958-1.45,3.442-0.803c-0.086,0.074-0.219,0.157-0.299,0.264
			c-0.281,0.374-0.545,0.756-0.816,1.134c0.545-0.012,1.153,0.102,1.623-0.06c1.559-0.537,1.541-0.575,3.361,0.203
			c-0.246,0.093-0.466,0.134-0.613,0.242c-0.359,0.267-0.688,0.565-1.029,0.85c0.477,0.125,0.945,0.292,1.432,0.367
			c1.087,0.168,2.181,0.292,3.271,0.434c-0.008,0.171-0.016,0.343-0.024,0.514c-0.169,0.022-0.357,0.012-0.504,0.072
			c-0.491,0.197-0.968,0.42-1.449,0.632c0.465,0.248,0.894,0.625,1.399,0.718C72.143,15.419,72.154,15.379,73.037,16.848z"/>
		<ellipse fill-rule="evenodd" clip-rule="evenodd" fill="#FFFFFF" cx="60.037" cy="20.391" rx="9.322" ry="7.212"/>
	</g>
	<g>
		<path fill="#E17227" d="M51.605,19.58c0,0,3.278-4.443,10.072-2.592c0,0,1.504,0.88,2.256,0.232c0,0,0.661-0.301,0.271-1.643
			c0,0,0.571,0.185,0.662,0.879c0,0,0.421,1.758-1.474,3.124c0,0-0.422,0.162-0.482,0.347c0,0,0.091,0.509,0,0.648
			c0,0-0.21,0.393-0.391,0.462l-1.383-0.625c0,0,0.271-0.533,0.512-0.556c0,0,0.781-0.092,0.781-0.717c0,0-0.33-0.602-0.872-0.649
			c0,0-0.421-0.068-0.54-0.184c0,0-4.932-2.476-9.412,1.573C51.605,19.88,51.384,19.842,51.605,19.58z"/>
		<path fill="#8D3838" d="M65.592,14.66c0,0,3.22,4.467-2.374,7.966c0,0-1.761,0.529-1.433,1.36c0,0-0.012,0.591,1.681,1.034
			c0,0-0.503,0.279-1.319-0.023c0,0-2.169-0.64-2.696-2.596c0,0,0.04-0.36-0.135-0.497c0,0-0.612-0.206-0.719-0.337
			c0,0-0.326-0.343-0.31-0.498l1.414-0.583c0,0,0.449,0.455,0.35,0.625c0,0-0.305,0.563,0.389,0.888c0,0,0.84,0.096,1.172-0.236
			c0,0,0.297-0.24,0.488-0.259c0,0,5.314-1.948,3.158-7.001C65.258,14.503,65.416,14.377,65.592,14.66z"/>
		<path fill="#531514" d="M63.961,26.281c0,0-6.637,0.107-8.051-5.332c0,0,0.212-1.443-0.896-1.609c0,0-0.675-0.284-1.972,0.663
			c0,0-0.086-0.473,0.643-0.888c0,0,1.747-1.178,4.241-0.625c0,0,0.396,0.195,0.633,0.141c0,0,0.522-0.321,0.724-0.332
			c0,0,0.547-0.062,0.718,0.021l0.01,1.235c0,0-0.732,0.093-0.881-0.054c0,0-0.504-0.469-1.201-0.149c0,0-0.502,0.527-0.276,0.908
			c0,0,0.138,0.313,0.07,0.452c0,0-0.239,4.528,6.575,5.416C64.297,26.126,64.368,26.292,63.961,26.281z"/>
	</g>
</g>
<text transform="matrix(0.502 0 0 1 15.0508 45.4629)"><tspan x="0" y="0" fill="#010101" font-family="'Calibri'" font-size="18.7427">C</tspan><tspan x="9.994" y="0" fill="#010101" font-family="'AdobeArabic-Regular'" font-size="18.7427">USTOM FURNITURE</tspan></text>
</svg>
